<?xml version="1.0" encoding="UTF-8" standalone="no"?>
<!DOCTYPE svg PUBLIC "-//W3C//DTD SVG 1.1//EN"
 "http://www.w3.org/Graphics/SVG/1.1/DTD/svg11.dtd">
<!-- Generated by graphviz version 7.0.1 (0)
 -->
<!-- Pages: 1 -->
<svg width="889pt" height="260pt"
 viewBox="0.00 0.00 888.84 260.00" xmlns="http://www.w3.org/2000/svg" xmlns:xlink="http://www.w3.org/1999/xlink">
<g id="graph0" class="graph" transform="scale(1 1) rotate(0) translate(4 256)">
<polygon fill="white" stroke="none" points="-4,4 -4,-256 884.84,-256 884.84,4 -4,4"/>
<!-- x3_0 -->
<g id="node1" class="node">
<title>x3_0</title>
<ellipse fill="none" stroke="black" cx="416.5" cy="-234" rx="32.49" ry="18"/>
<text text-anchor="middle" x="416.5" y="-230.3" font-family="Times,serif" font-size="14.00">x3_0</text>
</g>
<!-- x2_1 -->
<g id="node2" class="node">
<title>x2_1</title>
<ellipse fill="none" stroke="black" cx="306.5" cy="-162" rx="32.49" ry="18"/>
<text text-anchor="middle" x="306.5" y="-158.3" font-family="Times,serif" font-size="14.00">x2_1</text>
</g>
<!-- x3_0&#45;&#45;x2_1 -->
<g id="edge1" class="edge">
<title>x3_0&#45;&#45;x2_1</title>
<path fill="none" stroke="black" stroke-dasharray="1,5" d="M395.81,-219.83C376.14,-207.32 346.73,-188.6 327.09,-176.11"/>
</g>
<!-- x2_8 -->
<g id="node9" class="node">
<title>x2_8</title>
<ellipse fill="none" stroke="black" cx="532.5" cy="-162" rx="32.49" ry="18"/>
<text text-anchor="middle" x="532.5" y="-158.3" font-family="Times,serif" font-size="14.00">x2_8</text>
</g>
<!-- x3_0&#45;&#45;x2_8 -->
<g id="edge8" class="edge">
<title>x3_0&#45;&#45;x2_8</title>
<path fill="none" stroke="black" d="M438.04,-220C458.88,-207.42 490.27,-188.48 511.06,-175.93"/>
</g>
<!-- x1_2 -->
<g id="node3" class="node">
<title>x1_2</title>
<ellipse fill="none" stroke="black" cx="151.5" cy="-90" rx="32.49" ry="18"/>
<text text-anchor="middle" x="151.5" y="-86.3" font-family="Times,serif" font-size="14.00">x1_2</text>
</g>
<!-- x2_1&#45;&#45;x1_2 -->
<g id="edge2" class="edge">
<title>x2_1&#45;&#45;x1_2</title>
<path fill="none" stroke="black" stroke-dasharray="1,5" d="M281.94,-149.91C253,-136.84 205.2,-115.25 176.2,-102.16"/>
</g>
<!-- x1_5 -->
<g id="node6" class="node">
<title>x1_5</title>
<ellipse fill="none" stroke="black" cx="306.5" cy="-90" rx="32.49" ry="18"/>
<text text-anchor="middle" x="306.5" y="-86.3" font-family="Times,serif" font-size="14.00">x1_5</text>
</g>
<!-- x2_1&#45;&#45;x1_5 -->
<g id="edge5" class="edge">
<title>x2_1&#45;&#45;x1_5</title>
<path fill="none" stroke="black" d="M306.5,-143.7C306.5,-132.85 306.5,-118.92 306.5,-108.1"/>
</g>
<!-- False_3 -->
<g id="node4" class="node">
<title>False_3</title>
<ellipse fill="none" stroke="black" cx="45.5" cy="-18" rx="45.49" ry="18"/>
<text text-anchor="middle" x="45.5" y="-14.3" font-family="Times,serif" font-size="14.00">False_3</text>
</g>
<!-- x1_2&#45;&#45;False_3 -->
<g id="edge3" class="edge">
<title>x1_2&#45;&#45;False_3</title>
<path fill="none" stroke="black" stroke-dasharray="1,5" d="M131.06,-75.5C113.01,-63.58 86.74,-46.23 68.07,-33.91"/>
</g>
<!-- True_4 -->
<g id="node5" class="node">
<title>True_4</title>
<ellipse fill="none" stroke="black" cx="151.5" cy="-18" rx="42.49" ry="18"/>
<text text-anchor="middle" x="151.5" y="-14.3" font-family="Times,serif" font-size="14.00">True_4</text>
</g>
<!-- x1_2&#45;&#45;True_4 -->
<g id="edge4" class="edge">
<title>x1_2&#45;&#45;True_4</title>
<path fill="none" stroke="black" d="M151.5,-71.7C151.5,-60.85 151.5,-46.92 151.5,-36.1"/>
</g>
<!-- True_6 -->
<g id="node7" class="node">
<title>True_6</title>
<ellipse fill="none" stroke="black" cx="253.5" cy="-18" rx="42.49" ry="18"/>
<text text-anchor="middle" x="253.5" y="-14.3" font-family="Times,serif" font-size="14.00">True_6</text>
</g>
<!-- x1_5&#45;&#45;True_6 -->
<g id="edge6" class="edge">
<title>x1_5&#45;&#45;True_6</title>
<path fill="none" stroke="black" stroke-dasharray="1,5" d="M294.47,-73.12C285.92,-61.82 274.47,-46.7 265.84,-35.31"/>
</g>
<!-- False_7 -->
<g id="node8" class="node">
<title>False_7</title>
<ellipse fill="none" stroke="black" cx="359.5" cy="-18" rx="45.49" ry="18"/>
<text text-anchor="middle" x="359.5" y="-14.3" font-family="Times,serif" font-size="14.00">False_7</text>
</g>
<!-- x1_5&#45;&#45;False_7 -->
<g id="edge7" class="edge">
<title>x1_5&#45;&#45;False_7</title>
<path fill="none" stroke="black" d="M318.52,-73.12C327.07,-61.82 338.53,-46.7 347.15,-35.31"/>
</g>
<!-- x1_9 -->
<g id="node10" class="node">
<title>x1_9</title>
<ellipse fill="none" stroke="black" cx="532.5" cy="-90" rx="32.49" ry="18"/>
<text text-anchor="middle" x="532.5" y="-86.3" font-family="Times,serif" font-size="14.00">x1_9</text>
</g>
<!-- x2_8&#45;&#45;x1_9 -->
<g id="edge9" class="edge">
<title>x2_8&#45;&#45;x1_9</title>
<path fill="none" stroke="black" stroke-dasharray="1,5" d="M532.5,-143.7C532.5,-132.85 532.5,-118.92 532.5,-108.1"/>
</g>
<!-- x1_12 -->
<g id="node13" class="node">
<title>x1_12</title>
<ellipse fill="none" stroke="black" cx="708.5" cy="-90" rx="38.19" ry="18"/>
<text text-anchor="middle" x="708.5" y="-86.3" font-family="Times,serif" font-size="14.00">x1_12</text>
</g>
<!-- x2_8&#45;&#45;x1_12 -->
<g id="edge12" class="edge">
<title>x2_8&#45;&#45;x1_12</title>
<path fill="none" stroke="black" d="M558.47,-150.67C590.98,-137.74 646.47,-115.67 680.08,-102.3"/>
</g>
<!-- False_10 -->
<g id="node11" class="node">
<title>False_10</title>
<ellipse fill="none" stroke="black" cx="474.5" cy="-18" rx="51.19" ry="18"/>
<text text-anchor="middle" x="474.5" y="-14.3" font-family="Times,serif" font-size="14.00">False_10</text>
</g>
<!-- x1_9&#45;&#45;False_10 -->
<g id="edge10" class="edge">
<title>x1_9&#45;&#45;False_10</title>
<path fill="none" stroke="black" stroke-dasharray="1,5" d="M519.33,-73.12C510.11,-61.98 497.8,-47.13 488.41,-35.8"/>
</g>
<!-- True_11 -->
<g id="node12" class="node">
<title>True_11</title>
<ellipse fill="none" stroke="black" cx="591.5" cy="-18" rx="48.19" ry="18"/>
<text text-anchor="middle" x="591.5" y="-14.3" font-family="Times,serif" font-size="14.00">True_11</text>
</g>
<!-- x1_9&#45;&#45;True_11 -->
<g id="edge11" class="edge">
<title>x1_9&#45;&#45;True_11</title>
<path fill="none" stroke="black" d="M545.88,-73.12C555.4,-61.82 568.15,-46.7 577.75,-35.31"/>
</g>
<!-- False_13 -->
<g id="node14" class="node">
<title>False_13</title>
<ellipse fill="none" stroke="black" cx="708.5" cy="-18" rx="51.19" ry="18"/>
<text text-anchor="middle" x="708.5" y="-14.3" font-family="Times,serif" font-size="14.00">False_13</text>
</g>
<!-- x1_12&#45;&#45;False_13 -->
<g id="edge13" class="edge">
<title>x1_12&#45;&#45;False_13</title>
<path fill="none" stroke="black" stroke-dasharray="1,5" d="M708.5,-71.7C708.5,-60.85 708.5,-46.92 708.5,-36.1"/>
</g>
<!-- False_14 -->
<g id="node15" class="node">
<title>False_14</title>
<ellipse fill="none" stroke="black" cx="829.5" cy="-18" rx="51.19" ry="18"/>
<text text-anchor="middle" x="829.5" y="-14.3" font-family="Times,serif" font-size="14.00">False_14</text>
</g>
<!-- x1_12&#45;&#45;False_14 -->
<g id="edge14" class="edge">
<title>x1_12&#45;&#45;False_14</title>
<path fill="none" stroke="black" d="M731.83,-75.5C752.43,-63.58 782.42,-46.23 803.72,-33.91"/>
</g>
</g>
</svg>
